<svg version="1.1"
      xmlns="http://www.w3.org/2000/svg"
      xmlns:xlink="http://www.w3.org/1999/xlink"  id="snapshot-92953" width="250" height="160" viewBox="0 0 250 160"><desc>This image was made on Patterninja.com</desc><defs>
<!-- image 11237 -->
<g id="transformed-11237" data-image="11237" transform="translate(189.5, -34.5) rotate(343, 40.5, 39.5)"><g><svg version="1.1" width="81px" height="79px" viewBox="0 0 81 79"><g id="original-11237"><svg xmlns="http://www.w3.org/2000/svg" fill="none" viewBox="0 0 256 252" xmlns:xlink="http://www.w3.org/1999/xlink" version="1.1" preserveAspectRatio="xMidYMid meet">
  <path fill-rule="evenodd" d="M5.922 66.594A11.908 11.908 0 0 0 0 76.888v93.839c0 4.241 2.256 8.162 5.922 10.294L128 252v-.372l122.078-70.979A11.91 11.91 0 0 0 256 170.354V80.385c0-4.591-4.977-7.455-8.946-5.147l-113.132 65.778A11.909 11.909 0 0 0 128 151.31v17.337L9.92 99.992 128 31.337V5.963c0-4.592-4.977-7.455-8.946-5.147L5.922 66.594zm160.024 85.935a2.978 2.978 0 0 0-1.481 2.574v7.608a1.489 1.489 0 0 0 2.237 1.286l60.283-35.05a2.977 2.977 0 0 0 1.48-2.573v-7.608a1.488 1.488 0 0 0-2.236-1.287l-60.283 35.05z" clip-rule="evenodd" fill="rgba(51, 91, 241, 1)" stroke="none"/>
  <path d="M85.333 126.503c0-4.242 2.256-8.163 5.923-10.294l113.132-65.778c3.969-2.308 8.945.556 8.945 5.147v25.374l-128 74.423v-28.872z" fill="rgba(51, 91, 241, 1)" stroke="none"/>
  <path d="M42.667 101.695c0-4.241 2.255-8.162 5.922-10.294L161.72 25.623c3.969-2.308 8.946.556 8.946 5.147v25.375l-128 74.422v-28.872z" fill="rgba(51, 91, 241, 1)" stroke="none"/>
</svg>
</g></svg></g></g>
<!-- /image 11237 -->

<!-- image 69492 -->
<g id="transformed-69492" data-image="69492" transform="translate(26.057052844742955, -70.51208922237882) rotate(22, 71.53294715525705, 76.75208922237881)"><g><svg version="1.1" width="143.0658943105141px" height="153.50417844475763px" viewBox="0 0 143.0658943105141 153.50417844475763"><g id="original-69492"><svg xmlns="http://www.w3.org/2000/svg" data-name="Layer 1" viewBox="0 0 280 300" xmlns:xlink="http://www.w3.org/1999/xlink" version="1.1" preserveAspectRatio="xMidYMid meet">
  <path d="M130.17 75l-68.56 28.4a4.59 4.59 0 0 0 .07 8.51l68.84 27.3a25.52 25.52 0 0 0 18.83 0l68.84-27.3a4.59 4.59 0 0 0 .07-8.51L149.7 75a25.52 25.52 0 0 0-19.53 0" fill="rgba(254, 191, 16, 1)" stroke="none"/>
  <path d="M146 154.12v68.19a4.59 4.59 0 0 0 6.29 4.27L229 196.81a4.6 4.6 0 0 0 2.9-4.27v-68.2a4.6 4.6 0 0 0-6.29-4.27l-76.71 29.78a4.58 4.58 0 0 0-2.9 4.27" fill="rgba(72, 178, 229, 1)" stroke="none"/>
  <path d="M128.13 157.64l-22.77 11-2.31 1.11-48 23c-3 1.47-6.94-.75-6.94-4.13v-64a4.29 4.29 0 0 1 1.47-3.08 5.33 5.33 0 0 1 1.16-.87 4.9 4.9 0 0 1 4.18-.32l72.88 28.87a4.6 4.6 0 0 1 .38 8.41" fill="rgba(237, 51, 74, 1)" stroke="none"/>
  <path d="M128.13 157.64l-22.77 11-55.83-47.09a5.33 5.33 0 0 1 1.16-.87 4.9 4.9 0 0 1 4.18-.32l72.88 28.87a4.6 4.6 0 0 1 .38 8.41" fill="rgba(1, 1, 1, 0.25)" stroke="none"/>
</svg>
</g></svg></g></g>
<!-- /image 69492 -->
</defs><rect x="0" y="0" width="250" height="160" fill="rgba(0, 0, 0, 0.9127906976744186)"></rect><use xlink:href="#transformed-11237" transform="translate(-250, -160)"></use><use xlink:href="#transformed-11237" transform="translate(0, -160)"></use><use xlink:href="#transformed-11237" transform="translate(250, -160)"></use><use xlink:href="#transformed-11237" transform="translate(-250, 0)"></use><use xlink:href="#transformed-11237" transform="translate(0, 0)"></use><use xlink:href="#transformed-11237" transform="translate(250, 0)"></use><use xlink:href="#transformed-11237" transform="translate(-250, 160)"></use><use xlink:href="#transformed-11237" transform="translate(0, 160)"></use><use xlink:href="#transformed-11237" transform="translate(250, 160)"></use><use xlink:href="#transformed-69492" transform="translate(-250, -160)"></use><use xlink:href="#transformed-69492" transform="translate(0, -160)"></use><use xlink:href="#transformed-69492" transform="translate(250, -160)"></use><use xlink:href="#transformed-69492" transform="translate(-250, 0)"></use><use xlink:href="#transformed-69492" transform="translate(0, 0)"></use><use xlink:href="#transformed-69492" transform="translate(250, 0)"></use><use xlink:href="#transformed-69492" transform="translate(-250, 160)"></use><use xlink:href="#transformed-69492" transform="translate(0, 160)"></use><use xlink:href="#transformed-69492" transform="translate(250, 160)"></use></svg>