<svg version="1.1"
      xmlns="http://www.w3.org/2000/svg"
      xmlns:xlink="http://www.w3.org/1999/xlink"  id="snapshot-17640" width="250" height="320" viewBox="0 0 250 320"><desc>This image was made on Patterninja.com</desc><defs>
<!-- image 87208 -->
<g id="transformed-87208" data-image="87208" transform="translate(-130.8249800429004, 175.97859950704571) rotate(10, 138.3949800429004, 35.57140049295431)"><g><svg version="1.1" width="276.7899600858008px" height="71.14280098590862px" viewBox="0 0 276.7899600858008 71.14280098590862"><g id="original-87208"><svg xmlns="http://www.w3.org/2000/svg" viewBox="0 0 998 257" xmlns:xlink="http://www.w3.org/1999/xlink" version="1.1" preserveAspectRatio="xMidYMid meet">
  <rect width="257" height="257" rx="128.5" fill="rgba(123, 203, 212, 1)" stroke="none"/>
  <path d="M69.558 133.985l87.592-86.99c1.636-1.624 4.27.353 3.165 2.378l-32.601 59.752c-.728 1.332.237 2.958 1.755 2.958h56.34c1.815 0 2.691 2.223 1.364 3.462l-98.728 92.142c-1.77 1.652-4.405-.676-2.984-2.636l46.736-64.473c.958-1.322.014-3.174-1.619-3.174h-59.61c-1.786 0-2.677-2.161-1.41-3.419z" fill="rgba(255, 255, 255, 1)" stroke="none"/>
</svg>
</g></svg></g></g>
<!-- /image 87208 -->

<!-- image 64461 -->
<g id="transformed-64461" data-image="64461" transform="translate(-25.463155522129423, 37.749934966224636) rotate(23, 36.44315552212942, 35.86006503377536)"><g><svg version="1.1" width="72.88631104425885px" height="71.72013006755073px" viewBox="0 0 72.88631104425885 71.72013006755073"><g id="original-64461"><svg xmlns="http://www.w3.org/2000/svg" fill="none" viewBox="0 0 256 252" xmlns:xlink="http://www.w3.org/1999/xlink" version="1.1" preserveAspectRatio="xMidYMid meet">
  <path fill-rule="evenodd" d="M5.922 66.594A11.908 11.908 0 0 0 0 76.888v93.839c0 4.241 2.256 8.162 5.922 10.294L128 252v-.372l122.078-70.979A11.91 11.91 0 0 0 256 170.354V80.385c0-4.591-4.977-7.455-8.946-5.147l-113.132 65.778A11.909 11.909 0 0 0 128 151.31v17.337L9.92 99.992 128 31.337V5.963c0-4.592-4.977-7.455-8.946-5.147L5.922 66.594zm160.024 85.935a2.978 2.978 0 0 0-1.481 2.574v7.608a1.489 1.489 0 0 0 2.237 1.286l60.283-35.05a2.977 2.977 0 0 0 1.48-2.573v-7.608a1.488 1.488 0 0 0-2.236-1.287l-60.283 35.05z" clip-rule="evenodd" fill="rgba(51, 91, 241, 1)" stroke="none"/>
  <path d="M85.333 126.503c0-4.242 2.256-8.163 5.923-10.294l113.132-65.778c3.969-2.308 8.945.556 8.945 5.147v25.374l-128 74.423v-28.872z" fill="rgba(51, 91, 241, 1)" stroke="none"/>
  <path d="M42.667 101.695c0-4.241 2.255-8.162 5.922-10.294L161.72 25.623c3.969-2.308 8.946.556 8.946 5.147v25.375l-128 74.422v-28.872z" fill="rgba(51, 91, 241, 1)" stroke="none"/>
</svg>
</g></svg></g></g>
<!-- /image 64461 -->

<!-- image 92582 -->
<g id="transformed-92582" data-image="92582" transform="translate(125.04648060149506, 5.336221377435258) rotate(26, 39.24351939850492, 37.67377862256474)"><g><svg version="1.1" width="78.48703879700984px" height="75.34755724512948px" viewBox="0 0 78.48703879700984 75.34755724512948"><g id="original-92582"><svg xmlns="http://www.w3.org/2000/svg" fill="none" viewBox="0 0 27 26" xmlns:xlink="http://www.w3.org/1999/xlink" version="1.1" preserveAspectRatio="xMidYMid meet">
  <path fill-rule="evenodd" d="M.986 0H25.31a.98.98 0 0 1 .986.975v24.05a.98.98 0 0 1-.986.975H.986A.98.98 0 0 1 0 25.025V.975A.98.98 0 0 1 .986 0zm13.632 13.832V11.7H5.258v2.132H8.6v9.495h2.66v-9.495zm1.06 9.244c.429.216.936.379 1.522.487.585.108 1.203.162 1.852.162.632 0 1.233-.06 1.802-.178.569-.12 1.068-.315 1.497-.588s.768-.63 1.019-1.07.375-.986.375-1.635c0-.47-.072-.882-.215-1.236a2.883 2.883 0 0 0-.618-.945c-.27-.275-.593-.523-.97-.742s-.8-.425-1.274-.62a16.19 16.19 0 0 1-.932-.41 4.74 4.74 0 0 1-.701-.405 1.783 1.783 0 0 1-.445-.438.91.91 0 0 1-.157-.523c0-.178.047-.339.14-.482.094-.143.225-.266.396-.37s.38-.182.627-.238c.247-.057.522-.085.825-.085a5.608 5.608 0 0 1 1.435.199c.247.067.488.152.722.255.233.102.45.221.647.356v-2.424a6.522 6.522 0 0 0-1.316-.337 10.893 10.893 0 0 0-1.637-.109 7.73 7.73 0 0 0-1.781.199c-.561.132-1.055.339-1.481.62s-.763.64-1.01 1.074c-.248.435-.372.956-.372 1.561 0 .773.227 1.433.68 1.979.455.546 1.143 1.008 2.067 1.386.363.146.701.29 1.015.43.313.14.584.287.812.438.228.151.408.316.54.494a.995.995 0 0 1 .075 1.075c-.083.143-.208.267-.376.373s-.376.188-.627.247c-.25.06-.543.09-.878.09a5.089 5.089 0 0 1-1.7-.297 5.094 5.094 0 0 1-1.558-.887z" clip-rule="evenodd" fill="rgba(255, 255, 255, 1)" stroke="none"/>
</svg>
</g></svg></g></g>
<!-- /image 92582 -->

<!-- image 92422 -->
<g id="transformed-92422" data-image="92422" transform="translate(-35.94012370571201, 207.46987629428799) rotate(348, 39.23012370571201, 39.23012370571202)"><g><svg version="1.1" width="78.46024741142402px" height="78.46024741142404px" viewBox="0 0 78.46024741142402 78.46024741142404"><g id="original-92422"><svg fill="#fff" viewBox="0 0 100 100" xmlns="http://www.w3.org/2000/svg" xmlns:xlink="http://www.w3.org/1999/xlink" version="1.1" preserveAspectRatio="xMidYMid meet">
  <path d="M73.56 13.32H58.14a8.54 8.54 0 0 0-16.27 0H26.44a11 11 0 0 0-11 11v57.31a11 11 0 0 0 11 11h47.12a11 11 0 0 0 11-11V24.32a11 11 0 0 0-11-11zm-30.92 2a1 1 0 0 0 1-.79 6.54 6.54 0 0 1 12.78 0 1 1 0 0 0 1 .79h5.38v6.55a3 3 0 0 1-3 3H40.25a3 3 0 0 1-3-3v-6.55zm39.92 66.31a9 9 0 0 1-9 9H26.44a9 9 0 0 1-9-9V24.32a9 9 0 0 1 9-9h8.81v6.55a5 5 0 0 0 5 5h19.5a5 5 0 0 0 5-5v-6.55h8.81a9 9 0 0 1 9 9z" fill="rgba(0, 0, 0, 1)" stroke="none"/>
  <path d="M71.6 45.92H54a1 1 0 0 0 0 2h17.6a1 1 0 0 0 0-2z" style="transform:translateX(-25px)" fill="rgba(0, 0, 0, 1)" stroke="none"/>
  <path d="M71.6 45.92H54a1 1 0 0 0 0 2h17.6a1 1 0 0 0 0-2z" fill="rgba(0, 0, 0, 1)" stroke="none"/>
  <path d="M71.1 69.49H53.45a1 1 0 1 0 0 2H71.1a1 1 0 0 0 0-2z" style="transform:translateX(-25px)" fill="rgba(0, 0, 0, 1)" stroke="none"/>
  <path d="M71.1 69.49H53.45a1 1 0 1 0 0 2H71.1a1 1 0 0 0 0-2z" fill="rgba(0, 0, 0, 1)" stroke="none"/>
</svg>
</g></svg></g></g>
<!-- /image 92422 -->

<!-- image 91238 -->
<g id="transformed-91238" data-image="91238" transform="translate(-32.315153959185345, 157.05638639281528) rotate(17, 44.315153959185345, 26.94361360718472)"><g><svg version="1.1" width="88.63030791837069px" height="53.88722721436944px" viewBox="0 0 88.63030791837069 53.88722721436944"><g id="original-91238"><svg viewBox="0 0 148 90" style="transform:translateX(4%)" xmlns="http://www.w3.org/2000/svg" xmlns:xlink="http://www.w3.org/1999/xlink" version="1.1" preserveAspectRatio="xMidYMid meet">
  <path d="M34.992 23.495h27.855v2.219H37.546v16.699h23.792v2.219H37.546v18.334h25.591v2.219H34.992v-41.69zm30.35 0h2.96l13.115 18.334 13.405-18.334L113.055.207 83.1 43.756l15.436 21.429H95.46L81.417 45.683 67.316 65.185h-3.018L79.85 43.756 65.343 23.495zm34.297 2.219v-2.219h31.742v2.219h-14.623v39.47h-2.554v-39.47H99.64zM.145 23.495h3.192l44.011 66.003L29.16 65.185 2.814 26.648l-.116 38.537H.145v-41.69zm130.98 38.801c-.523 0-.914-.405-.914-.928 0-.524.391-.929.913-.929.528 0 .913.405.913.929 0 .523-.385.928-.913.928zm2.508-2.443H135c.019.742.56 1.24 1.354 1.24.888 0 1.391-.535 1.391-1.539v-6.356h1.391v6.362c0 1.808-1.043 2.849-2.77 2.849-1.62 0-2.732-1.01-2.732-2.556zm7.322-.08h1.379c.118.853.95 1.395 2.149 1.395 1.117 0 1.937-.58 1.937-1.377 0-.685-.521-1.097-1.708-1.377l-1.155-.28c-1.62-.38-2.36-1.166-2.36-2.487 0-1.602 1.304-2.668 3.26-2.668 1.82 0 3.15 1.066 3.23 2.58h-1.354c-.13-.828-.85-1.346-1.894-1.346-1.1 0-1.832.53-1.832 1.34 0 .642.472 1.01 1.64 1.284l.987.243c1.838.43 2.596 1.178 2.596 2.53 0 1.72-1.33 2.799-3.453 2.799-1.987 0-3.323-1.029-3.422-2.637z" fill="rgba(0, 0, 0, 1)" stroke="none"/>
</svg>
</g></svg></g></g>
<!-- /image 91238 -->
</defs><rect x="0" y="0" width="250" height="320" fill="rgba(62, 79, 97, 1)"></rect><use xlink:href="#transformed-87208" transform="translate(-250, -320)"></use><use xlink:href="#transformed-87208" transform="translate(0, -320)"></use><use xlink:href="#transformed-87208" transform="translate(250, -320)"></use><use xlink:href="#transformed-87208" transform="translate(-250, 0)"></use><use xlink:href="#transformed-87208" transform="translate(0, 0)"></use><use xlink:href="#transformed-87208" transform="translate(250, 0)"></use><use xlink:href="#transformed-87208" transform="translate(-250, 320)"></use><use xlink:href="#transformed-87208" transform="translate(0, 320)"></use><use xlink:href="#transformed-87208" transform="translate(250, 320)"></use><use xlink:href="#transformed-64461" transform="translate(-250, -320)"></use><use xlink:href="#transformed-64461" transform="translate(0, -320)"></use><use xlink:href="#transformed-64461" transform="translate(250, -320)"></use><use xlink:href="#transformed-64461" transform="translate(-250, 0)"></use><use xlink:href="#transformed-64461" transform="translate(0, 0)"></use><use xlink:href="#transformed-64461" transform="translate(250, 0)"></use><use xlink:href="#transformed-64461" transform="translate(-250, 320)"></use><use xlink:href="#transformed-64461" transform="translate(0, 320)"></use><use xlink:href="#transformed-64461" transform="translate(250, 320)"></use><use xlink:href="#transformed-92582" transform="translate(-250, -320)"></use><use xlink:href="#transformed-92582" transform="translate(0, -320)"></use><use xlink:href="#transformed-92582" transform="translate(250, -320)"></use><use xlink:href="#transformed-92582" transform="translate(-250, 0)"></use><use xlink:href="#transformed-92582" transform="translate(0, 0)"></use><use xlink:href="#transformed-92582" transform="translate(250, 0)"></use><use xlink:href="#transformed-92582" transform="translate(-250, 320)"></use><use xlink:href="#transformed-92582" transform="translate(0, 320)"></use><use xlink:href="#transformed-92582" transform="translate(250, 320)"></use><use xlink:href="#transformed-92422" transform="translate(-250, -320)"></use><use xlink:href="#transformed-92422" transform="translate(0, -320)"></use><use xlink:href="#transformed-92422" transform="translate(250, -320)"></use><use xlink:href="#transformed-92422" transform="translate(-250, 0)"></use><use xlink:href="#transformed-92422" transform="translate(0, 0)"></use><use xlink:href="#transformed-92422" transform="translate(250, 0)"></use><use xlink:href="#transformed-92422" transform="translate(-250, 320)"></use><use xlink:href="#transformed-92422" transform="translate(0, 320)"></use><use xlink:href="#transformed-92422" transform="translate(250, 320)"></use><use xlink:href="#transformed-91238" transform="translate(-250, -320)"></use><use xlink:href="#transformed-91238" transform="translate(0, -320)"></use><use xlink:href="#transformed-91238" transform="translate(250, -320)"></use><use xlink:href="#transformed-91238" transform="translate(-250, 0)"></use><use xlink:href="#transformed-91238" transform="translate(0, 0)"></use><use xlink:href="#transformed-91238" transform="translate(250, 0)"></use><use xlink:href="#transformed-91238" transform="translate(-250, 320)"></use><use xlink:href="#transformed-91238" transform="translate(0, 320)"></use><use xlink:href="#transformed-91238" transform="translate(250, 320)"></use></svg>